<?xml version="1.0" encoding="UTF-8"?>
<svg version="1.1" xmlns="http://www.w3.org/2000/svg" width="237" height="219">
<path d="M0 0 C1.85782486 1.49081586 3.69313566 3.01031238 5.5 4.5625 C6.28632813 5.23667969 7.07265625 5.91085938 7.8828125 6.60546875 C22.73557717 20.39732166 31.322472 39.56693043 33.5 59.5625 C33.49691391 61.87114898 33.41875679 64.17006906 33.33325195 66.47705078 C32.9717954 76.62190334 32.9717954 76.62190334 37.19140625 85.65625 C43.74073708 95.19676774 43.47042372 109.12806747 42.0390625 120.09375 C39.80857537 131.9546933 35.46549558 143.16817321 25.5 150.5625 C19.75805114 153.96060416 14.51366101 155.25621088 7.890625 154.24609375 C3.903799 153.10606998 0.78578016 151.0381915 -2.5 148.5625 C-3.325 147.964375 -4.15 147.36625 -5 146.75 C-5.495 146.358125 -5.99 145.96625 -6.5 145.5625 C-7.056875 146.42875 -7.61375 147.295 -8.1875 148.1875 C-13.17456257 155.60684923 -17.85990569 160.93977955 -26.8125 163 C-34.47362522 164.15228306 -39.71893484 162.04779337 -45.875 157.5625 C-48.23987708 155.69395515 -50.40153901 153.72533096 -52.5 151.5625 C-53.015625 152.284375 -53.53125 153.00625 -54.0625 153.75 C-58.89569683 159.32676558 -63.59096778 162.25340103 -70.953125 163.40234375 C-78.15665431 163.85532642 -83.25626182 161.65132699 -88.78515625 157.140625 C-90.97881596 155.12185843 -92.76234297 152.98280801 -94.5 150.5625 C-95.2425 149.634375 -95.985 148.70625 -96.75 147.75 C-97.3275 147.028125 -97.905 146.30625 -98.5 145.5625 C-99.11488281 145.98402344 -99.72976562 146.40554687 -100.36328125 146.83984375 C-101.17152344 147.38769531 -101.97976562 147.93554688 -102.8125 148.5 C-103.61300781 149.04527344 -104.41351563 149.59054688 -105.23828125 150.15234375 C-110.34157067 153.33418741 -115.67338678 153.10674409 -121.5 152.5625 C-129.48843738 150.48100575 -134.67027636 143.90971792 -139.0078125 137.24609375 C-146.61414846 123.42260295 -146.89880833 108.00194067 -143.5 92.96875 C-142.55329878 89.74404897 -141.32458094 87.0522964 -139.8125 84.0625 C-137.17320097 78.22168439 -137.26714323 73.08908211 -137.4375 66.8125 C-137.70243079 57.01171667 -136.61650042 48.84023974 -133.5 39.5625 C-133.149375 38.50933594 -132.79875 37.45617187 -132.4375 36.37109375 C-129.37173028 28.20635287 -124.66325543 21.52419271 -119.5 14.5625 C-118.95601562 13.77875 -118.41203125 12.995 -117.8515625 12.1875 C-117.40554687 11.65125 -116.95953125 11.115 -116.5 10.5625 C-115.84 10.5625 -115.18 10.5625 -114.5 10.5625 C-114.5 9.9025 -114.5 9.2425 -114.5 8.5625 C-113.84 8.5625 -113.18 8.5625 -112.5 8.5625 C-112.5 7.9025 -112.5 7.2425 -112.5 6.5625 C-81.55468277 -21.94534361 -33.96343368 -24.62241326 0 0 Z " fill="#C35F7A" transform="translate(174.5,39.4375)"/>
<path d="M0 0 C2.9375 0.875 2.9375 0.875 5.25 3.6875 C8.72264974 10.2469495 9.19216699 17.99483423 7.3359375 25.21484375 C6.21356248 27.89607296 4.9960827 29.8164173 2.9375 31.875 C0.0625 32.375 0.0625 32.375 -3.0625 31.875 C-8.82684671 24.86430805 -8.91188945 17.62950265 -8.0625 8.875 C-6.49071784 4.19352815 -4.84340185 1.3838291 0 0 Z " fill="#FCF7F9" transform="translate(103.0625,59.125)"/>
<path d="M0 0 C3.06006183 1.11953482 4.50168662 2.43508375 6.5625 4.9375 C7.70943757 8.37831271 7.73069738 11.12496712 7.75 14.75 C7.76417969 15.95269531 7.77835938 17.15539062 7.79296875 18.39453125 C7.56374672 21.91833425 6.83280979 24.65879528 5.5625 27.9375 C4.9025 27.9375 4.2425 27.9375 3.5625 27.9375 C3.2325 28.9275 2.9025 29.9175 2.5625 30.9375 C-0.1875 31.3125 -0.1875 31.3125 -3.4375 30.9375 C-8.49784474 25.05655882 -8.73040452 19.05400882 -8.66015625 11.59765625 C-8.2964755 7.25262837 -6.52268068 4.46661824 -4.0625 1 C-2.4375 -0.0625 -2.4375 -0.0625 0 0 Z " fill="#FCF7F9" transform="translate(145.4375,60.0625)"/>
<path d="M0 0 C1.74120953 5.61711729 1.30207295 11.65203423 1.35009766 17.47924805 C1.3666001 18.94262662 1.39381497 20.40592649 1.43212891 21.86889648 C1.65889993 30.59366522 1.59458293 37.77608643 -4 45 C-4.66 45 -5.32 45 -6 45 C-6.495 47.475 -6.495 47.475 -7 50 C-7.68359375 48.3984375 -7.68359375 48.3984375 -8 46 C-7.0955583 43.84213588 -6.1013197 41.7214842 -5.0625 39.625 C-1.63268021 32.04137271 -1.51113728 25.07991327 -1.87133789 16.85400391 C-2.12443684 10.83101421 -1.54636678 5.84050837 0 0 Z " fill="#B3647A" transform="translate(39,86)"/>
<path d="M0 0 C0.66 0.66 1.32 1.32 2 2 C-4.62952978 2.36015554 -9.03174123 1.86935518 -15 -1 C-19.06261703 -1.85079698 -22.91056796 -2.11901769 -27.0546875 -2.09765625 C-28.16328125 -2.09443359 -29.271875 -2.09121094 -30.4140625 -2.08789062 C-32.12722656 -2.07532227 -32.12722656 -2.07532227 -33.875 -2.0625 C-35.62296875 -2.05573242 -35.62296875 -2.05573242 -37.40625 -2.04882812 C-40.27088645 -2.03708781 -43.13541633 -2.0206657 -46 -2 C-46 -2.33 -46 -2.66 -46 -3 C-31.09647197 -6.08089739 -14.36213714 -4.94996928 0 0 Z " fill="#6C3545" transform="translate(151,27)"/>
<path d="M0 0 C1.00696411 3.61373701 0.91882455 6.43509457 0.5625 10.1875 C-0.11802263 18.46719194 -0.09046117 26.697675 0 35 C-1.485 35.495 -1.485 35.495 -3 36 C-2.83556396 35.27780273 -2.67112793 34.55560547 -2.50170898 33.81152344 C-2.0207923 31.11651785 -1.91413344 28.74598968 -1.97265625 26.015625 C-1.98490234 25.07976562 -1.99714844 24.14390625 -2.00976562 23.1796875 C-2.04464206 21.24210763 -2.08363706 19.30459707 -2.12695312 17.3671875 C-2.19830904 11.23897403 -1.55653502 5.93314526 0 0 Z " fill="#673241" transform="translate(39,86)"/>
<path d="M0 0 C-0.33 1.32 -0.66 2.64 -1 4 C-2.32 4 -3.64 4 -5 4 C-5 4.66 -5 5.32 -5 6 C-7.82391625 9.50850201 -9.34851748 10.86115946 -13.8125 11.8125 C-15.3903125 11.9053125 -15.3903125 11.9053125 -17 12 C-13.0637025 7.67007275 -6.06457203 0 0 0 Z " fill="#955060" transform="translate(82,33)"/>
<path d="M0 0 C3.63633649 3.16892069 5.48452349 6.6201866 7.3125 11 C7.58900391 11.61617187 7.86550781 12.23234375 8.15039062 12.8671875 C9.29857737 15.56267881 10.06853717 17.49685656 9.66796875 20.4375 C9.44753906 20.953125 9.22710937 21.46875 9 22 C9 21.01 9 20.02 9 19 C8.34 19 7.68 19 7 19 C7 18.34 7 17.68 7 17 C6.34 17 5.68 17 5 17 C4.89042969 16.39671875 4.78085938 15.7934375 4.66796875 15.171875 C3.76879004 10.63942946 2.95774005 7.6299537 0 4 C0 2.68 0 1.36 0 0 Z " fill="#874A5A" transform="translate(194,62)"/>
<path d="M0 0 C2.64 0.66 5.28 1.32 8 2 C8 2.66 8 3.32 8 4 C11.61867559 5.2062252 14.92506251 5.10816918 18.6875 5.0625 C19.38939453 5.05798828 20.09128906 5.05347656 20.81445312 5.04882812 C22.54300538 5.03706927 24.27151365 5.01913454 26 5 C21.32900033 8.11399978 16.93314754 8.35778778 11.5 7.375 C6.80750439 6.20791276 3.70197568 4.07185216 0 1 C0 0.67 0 0.34 0 0 Z " fill="#6D3548" transform="translate(85,195)"/>
<path d="M0 0 C0.99 0.33 1.98 0.66 3 1 C2.34 1.86625 1.68 2.7325 1 3.625 C-2.90275089 10.35483193 -1.6983552 19.68188411 0 27 C-0.66 27.33 -1.32 27.66 -2 28 C-2 27.01 -2 26.02 -2 25 C-2.66 24.67 -3.32 24.34 -4 24 C-3.91256271 21.12361482 -3.8056265 18.25015438 -3.6875 15.375 C-3.65366211 14.16263672 -3.65366211 14.16263672 -3.61914062 12.92578125 C-3.39493145 7.91164875 -2.65538135 4.39953264 0 0 Z " fill="#C37389" transform="translate(97,60)"/>
<path d="M0 0 C-3.99000166 1.42500059 -7.80530429 2.40075776 -12 3 C-12.33 3.99 -12.66 4.98 -13 6 C-16.47325181 7.1577506 -19.36067448 7.06866652 -23 7 C-17.17031145 3.11354096 -7.08007036 -2.83202815 0 0 Z " fill="#7A3E4E" transform="translate(105,26)"/>
<path d="M0 0 C4 1 4 1 6.125 3.875 C6.74375 4.90625 7.3625 5.9375 8 7 C8.99 8.485 8.99 8.485 10 10 C6.63408134 8.55746343 4.48952921 6.66735273 2 4 C0.68 5.65 -0.64 7.3 -2 9 C-2.66 8.67 -3.32 8.34 -4 8 C-2.68 5.36 -1.36 2.72 0 0 Z " fill="#763C4C" transform="translate(120,187)"/>
<path d="M0 0 C0.80179688 0.00451172 1.60359375 0.00902344 2.4296875 0.01367188 C4.41149006 0.02546832 6.39325433 0.04340395 8.375 0.0625 C5.16568683 3.27181317 2.21657703 3.22082274 -2.125 3.25 C-3.56359375 3.27126953 -3.56359375 3.27126953 -5.03125 3.29296875 C-7.625 3.0625 -7.625 3.0625 -10.625 1.0625 C-7.31505287 -0.59247356 -3.63377 -0.03834335 0 0 Z " fill="#7D4254" transform="translate(60.625,188.9375)"/>
<path d="M0 0 C1.32 0.66 2.64 1.32 4 2 C1.47211993 4.79872437 -0.20411134 6.45773019 -4 7 C-4 7.99 -4 8.98 -4 10 C-4.66 10 -5.32 10 -6 10 C-6 10.99 -6 11.98 -6 13 C-6.66 13 -7.32 13 -8 13 C-6.40956621 7.91061189 -3.2553049 4.12543357 0 0 Z " fill="#8B4B5C" transform="translate(56,53)"/>
<path d="M0 0 C2.31 0 4.62 0 7 0 C6.67 0.66 6.34 1.32 6 2 C6.33 2.99 6.66 3.98 7 5 C8.28317892 8.84953676 8.06643637 11.94738135 8 16 C7.67 16 7.34 16 7 16 C6.87044922 15.12988281 6.87044922 15.12988281 6.73828125 14.2421875 C5.68454328 8.3837911 4.08873807 5.30393482 0 1 C0 0.67 0 0.34 0 0 Z " fill="#C16D84" transform="translate(146,58)"/>
<path d="M0 0 C0.33 0 0.66 0 1 0 C1.34833144 4.87664009 0.41685712 7.77050005 -2 12 C-2.99 12 -3.98 12 -5 12 C-3.86279638 7.53866273 -2.64540851 3.79558613 0 0 Z " fill="#86465B" transform="translate(47,66)"/>
<path d="M0 0 C2.56616632 3.84924948 2.55097676 6.4349304 3 11 C3.99 11 4.98 11 6 11 C6 13.31 6 15.62 6 18 C3.61114603 15.10928596 2.34884838 12.59706105 1.3125 9 C1.06113281 8.154375 0.80976563 7.30875 0.55078125 6.4375 C0 4 0 4 0 0 Z " fill="#6A3646" transform="translate(30,157)"/>
<path d="M0 0 C0.66 0.99 1.32 1.98 2 3 C1.125 6.1875 1.125 6.1875 0 9 C-0.66 9 -1.32 9 -2 9 C-2.33 10.65 -2.66 12.3 -3 14 C-4.37095624 10.30962722 -3.60010967 8.29116165 -2.0625 4.75 C-1.68222656 3.85796875 -1.30195312 2.9659375 -0.91015625 2.046875 C-0.60980469 1.37140625 -0.30945312 0.6959375 0 0 Z " fill="#7C4250" transform="translate(35,122)"/>
<path d="M0 0 C0.33 1.32 0.66 2.64 1 4 C-1.3125 6.0625 -1.3125 6.0625 -4 8 C-4.99 7.67 -5.98 7.34 -7 7 C-6.67 6.34 -6.34 5.68 -6 5 C-5.34 5 -4.68 5 -4 5 C-4 4.34 -4 3.68 -4 3 C-3.34 3 -2.68 3 -2 3 C-2 2.34 -2 1.68 -2 1 C-1.34 0.67 -0.68 0.34 0 0 Z " fill="#8D4B5E" transform="translate(64,45)"/>
<path d="M0 0 C-0.33 1.32 -0.66 2.64 -1 4 C-1.99 3.34 -2.98 2.68 -4 2 C-5.485 4.475 -5.485 4.475 -7 7 C-8.34882814 4.30234372 -7.80338265 2.84835666 -7 0 C-4.3333581 -1.33332095 -2.83319697 -0.67102033 0 0 Z " fill="#7D4050" transform="translate(172,183)"/>
<path d="M0 0 C0.99 0.33 1.98 0.66 3 1 C3 1.66 3 2.32 3 3 C3.66 3.33 4.32 3.66 5 4 C5.99 5.485 5.99 5.485 7 7 C6.67 7.99 6.34 8.98 6 10 C3.25722422 6.80009492 1.3697164 3.99500618 0 0 Z " fill="#7A3F50" transform="translate(78,185)"/>
<path d="M0 0 C3.48331435 3.01887244 4.79157144 5.56909529 6 10 C5.34 10 4.68 10 4 10 C1.1605948 6.32547562 0 4.73113419 0 0 Z " fill="#7F4455" transform="translate(194,62)"/>
<path d="M0 0 C0.99 0.33 1.98 0.66 3 1 C2.38125 2.0725 1.7625 3.145 1.125 4.25 C-0.3323679 6.79780984 -1.72924491 9.35259355 -3 12 C-3.34833144 7.12335991 -2.41685712 4.22949995 0 0 Z " fill="#BA6C81" transform="translate(97,60)"/>
<path d="M0 0 C3.82097239 0.53069061 6.06171403 1.49701566 9 4 C6.03 3.67 3.06 3.34 0 3 C0 2.01 0 1.02 0 0 Z " fill="#884A59" transform="translate(153,29)"/>
<path d="M0 0 C2.64 0.66 5.28 1.32 8 2 C8 2.66 8 3.32 8 4 C8.66 4.33 9.32 4.66 10 5 C7.8125 5.3125 7.8125 5.3125 5 5 C2.1875 2.5 2.1875 2.5 0 0 Z " fill="#7F4456" transform="translate(85,195)"/>
<path d="M0 0 C0.66 0.66 1.32 1.32 2 2 C0.68 4.31 -0.64 6.62 -2 9 C-2.33 9 -2.66 9 -3 9 C-3.26218749 5.85375007 -3.24754367 4.38162983 -1.5 1.6875 C-1.005 1.130625 -0.51 0.57375 0 0 Z " fill="#9C5567" transform="translate(163,186)"/>
<path d="M0 0 C0.99 0 1.98 0 3 0 C5.1519437 3.22791555 5.20086443 4.28400809 5 8 C2.20127563 5.47211993 0.54226981 3.79588866 0 0 Z " fill="#8A4859" transform="translate(36,175)"/>
<path d="M0 0 C0.66 0.33 1.32 0.66 2 1 C1.43454163 4.95820859 0.19097652 7.6659053 -2 11 C-3.33332095 8.3333581 -2.67102033 6.83319697 -2 4 C-1.34 4 -0.68 4 0 4 C0 2.68 0 1.36 0 0 Z " fill="#7D3B4F" transform="translate(211,169)"/>
<path d="M0 0 C1.70884005 1.62339805 3.37446717 3.29319053 5 5 C5 5.66 5 6.32 5 7 C4.01 7.33 3.02 7.66 2 8 C0.4375 5.6875 0.4375 5.6875 -1 3 C-0.67 2.01 -0.34 1.02 0 0 Z " fill="#914D61" transform="translate(189,55)"/>
<path d="M0 0 C2.375 0.25 2.375 0.25 5 1 C6.3125 3.0625 6.3125 3.0625 7 5 C4.625 4.75 4.625 4.75 2 4 C0.6875 1.9375 0.6875 1.9375 0 0 Z " fill="#A35D6E" transform="translate(128,194)"/>
<path d="M0 0 C2.91517292 1.07401108 4.77810176 1.77810176 7 4 C4.125 4.1875 4.125 4.1875 1 4 C0.34 3.01 -0.32 2.02 -1 1 C-0.67 0.67 -0.34 0.34 0 0 Z " fill="#8B4759" transform="translate(164,34)"/>
<path d="M0 0 C0.66 0 1.32 0 2 0 C1.40138258 2.35171131 0.73075648 4.6859378 0 7 C-0.99 7.495 -0.99 7.495 -2 8 C-2.33 6.35 -2.66 4.7 -3 3 C-2.01 2.67 -1.02 2.34 0 2 C0 1.34 0 0.68 0 0 Z " fill="#BD667E" transform="translate(138,62)"/>
<path d="M0 0 C-0.33 1.32 -0.66 2.64 -1 4 C-3.31 4.33 -5.62 4.66 -8 5 C-3.22727273 0 -3.22727273 0 0 0 Z " fill="#7B4153" transform="translate(82,33)"/>
<path d="M0 0 C2.64 0 5.28 0 8 0 C7.67 0.99 7.34 1.98 7 3 C4.625 3.1875 4.625 3.1875 2 3 C1.34 2.01 0.68 1.02 0 0 Z " fill="#934A5E" transform="translate(172,187)"/>
<path d="M0 0 C5.875 3.75 5.875 3.75 7 6 C4.69 5.34 2.38 4.68 0 4 C0 2.68 0 1.36 0 0 Z " fill="#7A3E4F" transform="translate(174,40)"/>
</svg>
